<?xml version="1.0" encoding="utf-8"?>
<!-- Generator: Adobe Illustrator 26.4.1, SVG Export Plug-In . SVG Version: 6.00 Build 0)  -->
<svg version="1.1" id="Слой_1" xmlns="http://www.w3.org/2000/svg" xmlns:xlink="http://www.w3.org/1999/xlink" x="0px" y="0px"
	 viewBox="0 0 512 512" style="enable-background:new 0 0 512 512;" xml:space="preserve">
<style type="text/css">
	.st0{fill:#FFFFFF;}
</style>
<g>
	<g>
		<g>
			<path class="st0" d="M0.6,175.7c0,10.8,8.7,19.5,19.5,19.5s19.5-8.7,19.5-19.5V62.8H473v112.9c0,10.8,8.7,19.5,19.5,19.5
				s19.5-8.7,19.5-19.5V51.4c0-1.4-0.5-2.7-0.8-4.1c0.3-1.4,0.8-2.6,0.8-4.1c0-10.8-8.7-19.5-19.5-19.5H20.1
				c-10.8,0-19.5,8.7-19.5,19.5c0,1.4,0.5,2.7,0.8,4.1c-0.3,1.4-0.8,2.6-0.8,4C0.6,51.3,0.6,175.7,0.6,175.7z"/>
			<path class="st0" d="M255.1,485.9c10.8,0,19.5-8.7,19.5-19.5V181.8l84.8,84.8c7.6,7.6,19.9,7.6,27.5,0s7.6-19.9,0-27.6
				L268.8,120.9c-3.8-3.8-8.8-5.7-13.8-5.7c-5,0-10,1.9-13.8,5.7L123.1,239c-7.6,7.6-7.6,19.9,0,27.6c7.6,7.6,19.9,7.6,27.5,0
				l85-84.8v284.6C235.6,477.1,244.3,485.9,255.1,485.9L255.1,485.9z"/>
		</g>
	</g>
</g>
</svg>
