<?xml version="1.0" encoding="utf-8"?>
<!-- Generator: Adobe Illustrator 26.4.1, SVG Export Plug-In . SVG Version: 6.00 Build 0)  -->
<svg version="1.1" id="Слой_1" xmlns="http://www.w3.org/2000/svg" xmlns:xlink="http://www.w3.org/1999/xlink" x="0px" y="0px"
	 viewBox="0 0 512 512" style="enable-background:new 0 0 512 512;" xml:space="preserve">
<style type="text/css">
	.st0{fill:#1B46BC;}
</style>
<g>
	<g>
		<g>
			<path class="st0" d="M512,333.9c0-10.8-8.7-19.5-19.5-19.5c-10.8,0-19.5,8.7-19.5,19.5v112.9H39.6V333.9
				c0-10.8-8.7-19.5-19.5-19.5c-10.8,0-19.5,8.7-19.5,19.5v124.3c0,1.4,0.5,2.7,0.8,4.1c-0.3,1.4-0.8,2.6-0.8,4.1
				c0,10.8,8.7,19.5,19.5,19.5h472.4c10.8,0,19.5-8.7,19.5-19.5c0-1.4-0.5-2.7-0.8-4.1c0.3-1.4,0.8-2.6,0.8-4V333.9z"/>
			<path class="st0" d="M257.5,23.7c-10.8,0-19.5,8.7-19.5,19.5v284.6L153.2,243c-7.6-7.6-19.9-7.6-27.5,0s-7.6,19.9,0,27.6
				l118.1,118.1c3.8,3.8,8.8,5.7,13.8,5.7c5,0,10-1.9,13.8-5.7l118.1-118.1c7.6-7.6,7.6-19.9,0-27.6c-7.6-7.6-19.9-7.6-27.5,0
				L277,327.8V43.2C277,32.5,268.3,23.7,257.5,23.7L257.5,23.7z"/>
		</g>
	</g>
</g>
</svg>
